<svg xmlns="http://www.w3.org/2000/svg" width="800" height="600" viewBox="0 0 800 600">
  <defs>
    <linearGradient id="bg" x1="0" y1="0" x2="1" y2="1">
      <stop offset="0%" stop-color="#f7f3ef"/>
      <stop offset="100%" stop-color="#efe4da"/>
    </linearGradient>
    <linearGradient id="plate" x1="0" y1="0" x2="1" y2="1">
      <stop offset="0%" stop-color="#ffffff"/>
      <stop offset="100%" stop-color="#e6e9ee"/>
    </linearGradient>
    <linearGradient id="kebap" x1="0" y1="0" x2="1" y2="0">
      <stop offset="0%" stop-color="#8b3f2f"/>
      <stop offset="100%" stop-color="#b65c3f"/>
    </linearGradient>
  </defs>

  <rect width="800" height="600" fill="url(#bg)"/>
  <circle cx="400" cy="330" r="210" fill="url(#plate)" stroke="#d7dbe2" stroke-width="6"/>
  <circle cx="400" cy="330" r="150" fill="#fafafa"/>

  <g transform="translate(240 250)">
    <rect x="0" y="0" width="320" height="40" rx="20" fill="url(#kebap)"/>
    <rect x="0" y="55" width="320" height="40" rx="20" fill="url(#kebap)"/>
    <rect x="0" y="110" width="320" height="40" rx="20" fill="url(#kebap)"/>
  </g>

  <g transform="translate(215 220)">
    <rect x="0" y="0" width="80" height="18" rx="9" fill="#dc2626"/>
    <rect x="0" y="26" width="80" height="18" rx="9" fill="#16a34a"/>
    <rect x="0" y="52" width="80" height="18" rx="9" fill="#f97316"/>
  </g>

  <g transform="translate(505 220)">
    <rect x="0" y="0" width="80" height="18" rx="9" fill="#16a34a"/>
    <rect x="0" y="26" width="80" height="18" rx="9" fill="#dc2626"/>
    <rect x="0" y="52" width="80" height="18" rx="9" fill="#f97316"/>
  </g>

  <text x="400" y="520" text-anchor="middle" font-family="Arial, sans-serif" font-size="28" fill="#7c4a3a">
    Classic Kebap Tabagi
  </text>
</svg>
